#N canvas 533 126 461 613 10;
#X obj 28 151 list prepend;
#X obj 28 173 list trim;
#X obj 28 129 serial_print any;
#X msg 28 67 devices;
#X msg 163 72 close;
#X msg 106 50 open 2;
#X floatatom 36 243 5 0 0 0 - - -;
#X obj 37 222 route test1 test2;
#X floatatom 91 249 5 0 0 0 - - -;
#X obj 107 298 osc~;
#X obj 90 348 *~;
#X obj 90 369 osc~;
#X obj 90 390 *~ 0.5;
#X obj 90 411 dac~;
#X obj 95 270 / 16;
#X obj 33 29 loadbang;
#X obj 161 349 print pot1;
#X obj 237 350 print pot2;
#X msg 289 208 hello;
#X obj 289 229 print;
#X obj 28 107 comport 0 9600;
#X connect 0 0 1 0;
#X connect 1 0 7 0;
#X connect 2 0 0 0;
#X connect 2 1 0 1;
#X connect 3 0 20 0;
#X connect 4 0 20 0;
#X connect 5 0 20 0;
#X connect 6 0 10 0;
#X connect 6 0 16 0;
#X connect 7 0 6 0;
#X connect 7 1 8 0;
#X connect 8 0 14 0;
#X connect 8 0 17 0;
#X connect 9 0 10 1;
#X connect 10 0 11 0;
#X connect 11 0 12 0;
#X connect 12 0 13 0;
#X connect 12 0 13 1;
#X connect 14 0 9 0;
#X connect 15 0 3 0;
#X connect 15 0 18 0;
#X connect 18 0 19 0;
#X connect 20 0 2 0;
