#N canvas 56 199 461 613 10;
#X obj 44 315 list prepend;
#X obj 44 337 list trim;
#X obj 44 293 serial_print any;
#X msg 28 163 devices;
#X msg 157 182 close;
#X msg 100 160 open 2;
#X floatatom 52 407 5 0 0 0 - - -;
#X floatatom 107 413 5 0 0 0 - - -;
#X obj 123 462 osc~;
#X obj 106 512 *~;
#X obj 106 533 osc~;
#X obj 106 554 *~ 0.5;
#X obj 106 575 dac~;
#X obj 111 434 / 16;
#X obj 33 125 loadbang;
#X msg 101 132 open 1;
#X obj 44 271 comport 1 9600;
#X floatatom 159 409 5 0 0 0 - - -;
#X floatatom 214 415 5 0 0 0 - - -;
#X obj 53 386 route analog0 analog1 analog2 analog3 digital0;
#X floatatom 276 421 5 0 0 0 - - -;
#X msg 244 179 72;
#X msg 274 179 76;
#X obj 244 156 sel 1 0;
#X obj 267 123 tgl 15 0 empty empty empty 17 7 0 10 -262144 -1 -1 0
1;
#X connect 0 0 1 0;
#X connect 1 0 19 0;
#X connect 2 0 0 0;
#X connect 2 1 0 1;
#X connect 3 0 16 0;
#X connect 4 0 16 0;
#X connect 5 0 16 0;
#X connect 6 0 9 0;
#X connect 7 0 13 0;
#X connect 8 0 9 1;
#X connect 9 0 10 0;
#X connect 10 0 11 0;
#X connect 11 0 12 0;
#X connect 11 0 12 1;
#X connect 13 0 8 0;
#X connect 14 0 3 0;
#X connect 15 0 16 0;
#X connect 16 0 2 0;
#X connect 19 0 6 0;
#X connect 19 1 7 0;
#X connect 19 2 17 0;
#X connect 19 3 18 0;
#X connect 19 4 20 0;
#X connect 21 0 16 0;
#X connect 22 0 16 0;
#X connect 23 0 21 0;
#X connect 23 1 22 0;
#X connect 24 0 23 0;
